{
  "accessors": [
    {
      "bufferView": 2,
      "componentType": 5126,
      "count": 1587,
      "max": [
        168.71917724609375,
        165.941650390625,
        297.1393127441406
      ],
      "min": [
        -168.71917724609375,
        -171.16177368164063,
        -20.88300895690918
      ],
      "type": "VEC3"
    },
    {
      "bufferView": 2,
      "byteOffset": 19044,
      "componentType": 5126,
      "count": 1587,
      "max": [
        0.9982240200042725,
        0.9999561309814453,
        0.999815046787262
      ],
      "min": [
        -0.9982240200042725,
        -0.9964161515235901,
        -0.9999613165855408
      ],
      "type": "VEC3"
    },
    {
      "bufferView": 1,
      "componentType": 5126,
      "count": 1587,
      "max": [
        0.911907434463501,
        0.9927102327346802
      ],
      "min": [
        0.6743167638778687,
        0.5823656320571899
      ],
      "type": "VEC2"
    },
    {
      "bufferView": 0,
      "componentType": 5125,
      "count": 8814,
      "type": "SCALAR"
    },
    {
      "bufferView": 2,
      "byteOffset": 38088,
      "componentType": 5126,
      "count": 194,
      "max": [
        129.20362854003906,
        -100.64093017578125,
        228.0481719970703
      ],
      "min": [
        -129.20362854003906,
        -153.50204467773438,
        134.88803100585938
      ],
      "type": "VEC3"
    },
    {
      "bufferView": 2,
      "byteOffset": 40416,
      "componentType": 5126,
      "count": 194,
      "max": [
        0.94802325963974,
        -0.12386325746774673,
        0.9571043252944946
      ],
      "min": [
        -0.94802325963974,
        -0.9981300234794617,
        -0.9795216917991638
      ],
      "type": "VEC3"
    },
    {
      "bufferView": 1,
      "byteOffset": 12696,
      "componentType": 5126,
      "count": 194,
      "max": [
        0.8955661654472351,
        0.9781615734100342
      ],
      "min": [
        0.5215129256248474,
        0.9355960488319397
      ],
      "type": "VEC2"
    },
    {
      "bufferView": 0,
      "byteOffset": 35256,
      "componentType": 5125,
      "count": 672,
      "type": "SCALAR"
    },
    {
      "bufferView": 2,
      "byteOffset": 42744,
      "componentType": 5126,
      "count": 144,
      "max": [
        38.27424621582031,
        56.06938171386719,
        22.226301193237305
      ],
      "min": [
        -38.27424621582031,
        -88.91941833496094,
        -3.807969093322754
      ],
      "type": "VEC3"
    },
    {
      "bufferView": 2,
      "byteOffset": 44472,
      "componentType": 5126,
      "count": 144,
      "max": [
        0.9984360337257385,
        0.999957263469696,
        0.9987657070159912
      ],
      "min": [
        -0.9984360337257385,
        -0.9999409914016724,
        -0.9990729093551636
      ],
      "type": "VEC3"
    },
    {
      "bufferView": 1,
      "byteOffset": 14248,
      "componentType": 5126,
      "count": 144,
      "max": [
        0.7329504489898682,
        0.7170982360839844
      ],
      "min": [
        0.7020412683486938,
        0.6861890554428101
      ],
      "type": "VEC2"
    },
    {
      "bufferView": 0,
      "byteOffset": 37944,
      "componentType": 5125,
      "count": 576,
      "type": "SCALAR"
    }
  ],
  "asset": {
    "extras": {
      "author": "Zeus97 (https://sketchfab.com/Zeus97)",
      "license": "CC-BY-4.0 (http://creativecommons.org/licenses/by/4.0/)",
      "source": "https://sketchfab.com/3d-models/meme-pepe-d864ec4cbf5f45478393bf340fb4493e",
      "title": "Meme PePe"
    },
    "generator": "Sketchfab-16.7.0",
    "version": "2.0"
  },
  "bufferViews": [
    {
      "buffer": 0,
      "byteLength": 40248,
      "name": "floatBufferViews",
      "target": 34963
    },
    {
      "buffer": 0,
      "byteLength": 15400,
      "byteOffset": 40248,
      "byteStride": 8,
      "name": "floatBufferViews",
      "target": 34962
    },
    {
      "buffer": 0,
      "byteLength": 46200,
      "byteOffset": 55648,
      "byteStride": 12,
      "name": "floatBufferViews",
      "target": 34962
    }
  ],
  "buffers": [
    {
      "byteLength": 101848,
      "uri": "scene.bin"
    }
  ],
  "images": [
    {
      "uri": "textures/01_-_Default_baseColor.jpeg"
    }
  ],
  "materials": [
    {
      "doubleSided": true,
      "name": "01_-_Default",
      "pbrMetallicRoughness": {
        "baseColorTexture": {
          "index": 0
        },
        "metallicFactor": 0.0,
        "roughnessFactor": 0.8929713596497552
      }
    }
  ],
  "meshes": [
    {
      "name": "Plane_01 - Default_0",
      "primitives": [
        {
          "attributes": {
            "NORMAL": 1,
            "POSITION": 0,
            "TEXCOORD_0": 2
          },
          "indices": 3,
          "material": 0,
          "mode": 4
        }
      ]
    },
    {
      "name": "Object001_01 - Default_0",
      "primitives": [
        {
          "attributes": {
            "NORMAL": 5,
            "POSITION": 4,
            "TEXCOORD_0": 6
          },
          "indices": 7,
          "material": 0,
          "mode": 4
        }
      ]
    },
    {
      "name": "Box001_01 - Default_0",
      "primitives": [
        {
          "attributes": {
            "NORMAL": 9,
            "POSITION": 8,
            "TEXCOORD_0": 10
          },
          "indices": 11,
          "material": 0,
          "mode": 4
        }
      ]
    }
  ],
  "nodes": [
    {
      "children": [
        1
      ],
      "matrix": [
        1.0,
        0.0,
        0.0,
        0.0,
        0.0,
        2.220446049250313e-16,
        -1.0,
        0.0,
        0.0,
        1.0,
        2.220446049250313e-16,
        0.0,
        0.0,
        0.0,
        0.0,
        1.0
      ],
      "name": "Sketchfab_model"
    },
    {
      "children": [
        2
      ],
      "matrix": [
        0.009999999776482582,
        0.0,
        0.0,
        0.0,
        0.0,
        0.0,
        0.009999999776482582,
        0.0,
        0.0,
        -0.009999999776482582,
        0.0,
        0.0,
        0.0,
        0.0,
        0.0,
        1.0
      ],
      "name": "Meme.FBX"
    },
    {
      "children": [
        3,
        5,
        7
      ],
      "name": "RootNode"
    },
    {
      "children": [
        4
      ],
      "matrix": [
        1.0,
        0.0,
        0.0,
        0.0,
        0.0,
        2.220446049250313e-16,
        -1.0,
        0.0,
        0.0,
        1.0,
        2.220446049250313e-16,
        0.0,
        0.0,
        0.0,
        0.0,
        1.0
      ],
      "name": "Plane"
    },
    {
      "mesh": 0,
      "name": "Plane_01 - Default_0"
    },
    {
      "children": [
        6
      ],
      "matrix": [
        1.0,
        0.0,
        0.0,
        0.0,
        0.0,
        2.220446049250313e-16,
        -1.0,
        0.0,
        0.0,
        1.0,
        2.220446049250313e-16,
        0.0,
        0.0,
        0.0,
        0.0,
        1.0
      ],
      "name": "Object001"
    },
    {
      "mesh": 1,
      "name": "Object001_01 - Default_0"
    },
    {
      "children": [
        8
      ],
      "matrix": [
        2.0731821060180664,
        0.0,
        0.0,
        0.0,
        0.0,
        3.0944490549407824e-16,
        -1.393615961074829,
        0.0,
        0.0,
        1.355563998222351,
        3.009956724358778e-16,
        0.0,
        1.32318115234375,
        65.32807922363281,
        -28.74811363220215,
        1.0
      ],
      "name": "Box001"
    },
    {
      "mesh": 2,
      "name": "Box001_01 - Default_0"
    }
  ],
  "samplers": [
    {
      "magFilter": 9729,
      "minFilter": 9987,
      "wrapS": 10497,
      "wrapT": 10497
    }
  ],
  "scene": 0,
  "scenes": [
    {
      "name": "Sketchfab_Scene",
      "nodes": [
        0
      ]
    }
  ],
  "textures": [
    {
      "sampler": 0,
      "source": 0
    }
  ]
}
